<svg width="18" height="16" viewBox="0 0 18 16" fill="none" xmlns="http://www.w3.org/2000/svg">
<path d="M17.7806 8.94047L11.0306 15.6905C10.8899 15.8312 10.699 15.9103 10.5 15.9103C10.301 15.9103 10.1101 15.8312 9.96937 15.6905C9.82864 15.5497 9.74958 15.3589 9.74958 15.1598C9.74958 14.9608 9.82864 14.7699 9.96937 14.6292L15.4397 9.15984H0.75C0.551088 9.15984 0.360322 9.08082 0.21967 8.94017C0.0790178 8.79952 0 8.60875 0 8.40984C0 8.21093 0.0790178 8.02016 0.21967 7.87951C0.360322 7.73886 0.551088 7.65984 0.75 7.65984H15.4397L9.96937 2.19047C9.82864 2.04974 9.74958 1.85886 9.74958 1.65984C9.74958 1.46082 9.82864 1.26995 9.96937 1.12922C10.1101 0.988485 10.301 0.909424 10.5 0.909424C10.699 0.909424 10.8899 0.988485 11.0306 1.12922L17.7806 7.87921C17.8504 7.94887 17.9057 8.03159 17.9434 8.12263C17.9812 8.21368 18.0006 8.31128 18.0006 8.40984C18.0006 8.5084 17.9812 8.606 17.9434 8.69705C17.9057 8.78809 17.8504 8.87081 17.7806 8.94047Z" fill="#667F93"/>
</svg>
