<svg width="22" height="22" viewBox="0 0 22 22" fill="none" xmlns="http://www.w3.org/2000/svg">
<path fill-rule="evenodd" clip-rule="evenodd" d="M1.73431 20.9229C2.8493 21.0462 4.24332 20.7282 5.23313 20.2477C9.53119 22.6234 16.2498 22.5099 20.3167 19.9072C20.4744 19.6706 20.6218 19.4246 20.7585 19.1695C21.5714 17.6535 22.0006 15.9457 22.0006 13.0233V10.9045C22.0006 7.98201 21.5714 6.27422 20.7585 4.7582C19.9549 3.24218 18.7585 2.05494 17.2425 1.24213C15.7265 0.429326 14.0187 9.15527e-05 11.0962 9.15527e-05H8.96834C6.4793 9.15527e-05 4.86353 0.313413 3.50594 0.911578C3.43173 0.978029 3.35892 1.04562 3.28764 1.11434C-0.695287 4.95384 -0.998051 13.2766 2.37933 17.7976C2.3831 17.8043 2.38727 17.811 2.39186 17.8178C2.91242 18.585 2.41012 19.9275 1.62472 20.7129C1.49686 20.8316 1.54252 20.9047 1.73431 20.9229Z" fill="white"/>
</svg>
